<svg aria-hidden="true" xmlns="http://www.w3.org/2000/svg" xmlns:xlink="http://www.w3.org/1999/xlink"><symbol viewBox="0 0 16 16" id="arrow-left" xmlns="http://www.w3.org/2000/svg">
<path d="M15 8H1" stroke-width="2" stroke-linecap="round" stroke-linejoin="round"/>
<path d="M8 15L1 8L8 1" stroke-width="2" stroke-linecap="round" stroke-linejoin="round"/>
</symbol><symbol viewBox="0 0 16 16" id="arrow-right" xmlns="http://www.w3.org/2000/svg">
<path d="M1 8H15" stroke-width="2" stroke-linecap="round" stroke-linejoin="round"/>
<path d="M8 1L15 8L8 15" stroke-width="2" stroke-linecap="round" stroke-linejoin="round"/>
</symbol><symbol viewBox="0 0 11 20" id="facebook" xmlns="http://www.w3.org/2000/svg">
<path fill-rule="evenodd" clip-rule="evenodd" d="M11 0H8C5.23858 0 3 2.23858 3 5V8H0V12H3V20H7V12H10L11 8H7V5C7 4.44772 7.44772 4 8 4H11V0Z"/>
</symbol><symbol viewBox="0 0 34 44" id="hero-play" xmlns="http://www.w3.org/2000/svg">
<path fill-rule="evenodd" clip-rule="evenodd" d="M1 1L33 21.5714L1 42.1429V1V1Z" stroke-width="2" stroke-linecap="round" stroke-linejoin="round"/>
</symbol><symbol viewBox="0 0 68 68" id="insp-play" xmlns="http://www.w3.org/2000/svg">
<path fill-rule="evenodd" clip-rule="evenodd" d="M34 66C51.6731 66 66 51.6731 66 34C66 16.3269 51.6731 2 34 2C16.3269 2 2 16.3269 2 34C2 51.6731 16.3269 66 34 66Z" stroke-width="4"/>
<path fill-rule="evenodd" clip-rule="evenodd" d="M27 24L43 34.2857L27 44.5714V24V24Z" stroke-width="4" stroke-linecap="round" stroke-linejoin="round"/>
</symbol><symbol viewBox="0 0 121 16" id="logo" xmlns="http://www.w3.org/2000/svg">
<path d="M17.5674 16H14.0977V6.32129H14.0225L10.1875 15.8389H7.93164L4.10742 6.32129H4.02148V16H0.551758V0.499023H5.10645L9.0166 10.457H9.10254L13.0127 0.499023H17.5674V16ZM25.8516 16H21.9092V0.499023H25.8516V16ZM37.7344 16H33.8027V3.67871H29.5273V0.499023H42.0098V3.67871H37.7344V16ZM49.6172 3.47461V7.87891H51.9268C52.6501 7.87891 53.2158 7.68197 53.624 7.28809C54.0322 6.89421 54.2363 6.36068 54.2363 5.6875C54.2363 5.02148 54.0251 4.48796 53.6025 4.08691C53.18 3.67871 52.6178 3.47461 51.916 3.47461H49.6172ZM49.6172 10.5752V16H45.6748V0.499023H52.3135C54.2327 0.499023 55.7044 0.946615 56.7285 1.8418C57.7526 2.73698 58.2646 3.99382 58.2646 5.6123C58.2646 6.58626 58.0283 7.4707 57.5557 8.26562C57.0902 9.05339 56.4421 9.62988 55.6113 9.99512L58.7158 16H54.29L51.626 10.5752H49.6172ZM72.4355 16L71.458 12.5947H66.3877L65.3994 16H61.3818L66.5918 0.499023H71.415L76.625 16H72.4355ZM68.8799 3.78613L67.1504 9.75879H70.6846L68.9658 3.78613H68.8799ZM87.3584 16H82.3955L77.4541 0.499023H81.9336L84.9199 12.1436H85.0059L87.9814 0.499023H92.2998L87.3584 16ZM106.406 12.8203V16H95.7822V0.499023H106.406V3.67871H99.7246V6.76172H106.009V9.66211H99.7246V12.8203H106.406ZM120.985 12.8203V16H110.63V0.499023H114.572V12.8203H120.985Z"/>
</symbol><symbol viewBox="0 0 30 30" id="hero-pause" xmlns="http://www.w3.org/2000/svg">
<path d="M23.4375 4.21875H18.75C18.377 4.21875 18.0194 4.36691 17.7556 4.63063C17.4919 4.89435 17.3438 5.25204 17.3438 5.625V24.375C17.3438 24.748 17.4919 25.1056 17.7556 25.3694C18.0194 25.6331 18.377 25.7812 18.75 25.7812H23.4375C23.8105 25.7812 24.1681 25.6331 24.4319 25.3694C24.6956 25.1056 24.8438 24.748 24.8438 24.375V5.625C24.8437 5.25204 24.6956 4.89435 24.4319 4.63063C24.1681 4.36691 23.8105 4.21875 23.4375 4.21875ZM23.9062 24.375C23.9062 24.4993 23.8569 24.6185 23.769 24.7065C23.681 24.7944 23.5618 24.8438 23.4375 24.8438H18.75C18.6257 24.8438 18.5065 24.7944 18.4185 24.7065C18.3306 24.6185 18.2812 24.4993 18.2812 24.375V5.625C18.2812 5.50068 18.3306 5.38145 18.4185 5.29354C18.5065 5.20564 18.6257 5.15625 18.75 5.15625H23.4375C23.5618 5.15625 23.681 5.20564 23.769 5.29354C23.8569 5.38145 23.9062 5.50068 23.9062 5.625V24.375ZM11.25 4.21875H6.5625C6.18954 4.21875 5.83185 4.36691 5.56813 4.63063C5.30441 4.89435 5.15625 5.25204 5.15625 5.625V24.375C5.15625 24.748 5.30441 25.1056 5.56813 25.3694C5.83185 25.6331 6.18954 25.7812 6.5625 25.7812H11.25C11.623 25.7812 11.9806 25.6331 12.2444 25.3694C12.5081 25.1056 12.6562 24.748 12.6562 24.375V5.625C12.6562 5.25204 12.5081 4.89435 12.2444 4.63063C11.9806 4.36691 11.623 4.21875 11.25 4.21875ZM11.7188 24.375C11.7188 24.4993 11.6694 24.6185 11.5815 24.7065C11.4935 24.7944 11.3743 24.8438 11.25 24.8438H6.5625C6.43818 24.8438 6.31895 24.7944 6.23104 24.7065C6.14314 24.6185 6.09375 24.4993 6.09375 24.375V5.625C6.09375 5.50068 6.14314 5.38145 6.23104 5.29354C6.31895 5.20564 6.43818 5.15625 6.5625 5.15625H11.25C11.3743 5.15625 11.4935 5.20564 11.5815 5.29354C11.6694 5.38145 11.7188 5.50068 11.7188 5.625V24.375Z"/>
</symbol><symbol viewBox="0 0 112 112" id="play" xmlns="http://www.w3.org/2000/svg">
<path fill-rule="evenodd" clip-rule="evenodd" d="M56 112C86.9279 112 112 86.9279 112 56C112 25.0721 86.9279 0 56 0C25.0721 0 0 25.0721 0 56C0 86.9279 25.0721 112 56 112Z"/>
<path fill="white" fill-rule="evenodd" clip-rule="evenodd" d="M46 41L70 56.4286L46 71.8571V41Z"/>
</symbol><symbol viewBox="0 0 20 20" id="search" xmlns="http://www.w3.org/2000/svg">
<path fill-rule="evenodd" clip-rule="evenodd" d="M9 17C13.4183 17 17 13.4183 17 9C17 4.58172 13.4183 1 9 1C4.58172 1 1 4.58172 1 9C1 13.4183 4.58172 17 9 17Z" stroke-width="2" stroke-linecap="round" stroke-linejoin="round"/>
<path d="M19 19L14.65 14.65" stroke-width="2" stroke-linecap="round" stroke-linejoin="round"/>
</symbol><symbol viewBox="0 0 20 17" id="twitter" xmlns="http://www.w3.org/2000/svg">
<path fill-rule="evenodd" clip-rule="evenodd" d="M20 0.00932958C19.1294 0.6234 18.1656 1.09307 17.1455 1.40024C16.024 0.110728 14.2167 -0.341476 12.6201 0.267924C11.0234 0.877323 9.97709 2.41869 10 4.12751V5.0366C6.75515 5.12074 3.68366 3.57476 1.81818 0.91842C1.81818 0.91842 -1.81818 9.10024 6.36364 12.7366C4.49139 14.0075 2.26105 14.6447 0 14.5548C8.18182 19.1002 18.1818 14.5548 18.1818 4.10024C18.181 3.84701 18.1566 3.59442 18.1091 3.34569C19.0369 2.43069 19.6917 1.27543 20 0.00932958Z"/>
</symbol></svg>