<svg width="30" height="30" viewBox="0 0 30 30" fill="none" xmlns="http://www.w3.org/2000/svg">
<path d="M7.5 12.5V9.99998C7.5 9.57498 7.535 9.15623 7.60375 8.74998M22.5 12.5V9.99998C22.5001 8.47653 22.0362 6.98917 21.1702 5.73585C20.3041 4.48252 19.0769 3.52265 17.6519 2.98399C16.2268 2.44532 14.6715 2.3534 13.193 2.72046C11.7144 3.08752 10.3827 3.89614 9.375 5.03873M13.75 27.5H10C6.465 27.5 4.69625 27.5 3.59875 26.4012C2.5 25.3037 2.5 23.535 2.5 20C2.5 16.465 2.5 14.6962 3.59875 13.5987C4.69625 12.5 6.465 12.5 10 12.5H20C23.535 12.5 25.3038 12.5 26.4013 13.5987C27.5 14.6962 27.5 16.465 27.5 20C27.5 23.535 27.5 25.3037 26.4013 26.4012C25.3038 27.5 23.535 27.5 20 27.5H18.75" stroke="white" stroke-width="1.875" stroke-linecap="round"/>
</svg>
